# xmcd
#
# Track frame offsets:
#	150
#	17395
#	35825
#	54117
#	73240
#	92475
#	112380
#	134025
#	151432
#	169082
#	191600
#	206785
#	231037
#
# Disc length: 3365 seconds
#
# Revision: 0
# Processed by: cddbd v1.5PL3 Copyright (c) Steve Scherf et al.
# Submitted via: dBpowerAMP V4.0
#
DISCID=b90d230d
DTITLE=Tee - Totally
DYEAR=1900
DGENRE=Blues
TTITLE0=Who
TTITLE1=Addicted
TTITLE2=Anything
TTITLE3=I´ll keep loving you
TTITLE4=Think twice (Duet featuring Coral Spencer)
TTITLE5=Don´t make a baby yet
TTITLE6=Every second
TTITLE7=Face the music
TTITLE8=Angel
TTITLE9=Cool Johnny
TTITLE10=I wanna take you there
TTITLE11=Reminiscences
TTITLE12=Private Eye
EXTD=
EXTT0=
EXTT1=
EXTT2=
EXTT3=
EXTT4=
EXTT5=
EXTT6=
EXTT7=
EXTT8=
EXTT9=
EXTT10=
EXTT11=
EXTT12=
PLAYORDER=
